HIERARCHY
ROOT Elbow
{
	OFFSET	0.00	0.00	0.00
	CHANNELS 6 Xposition Yposition Zposition Zrotation Xrotation Yrotation
	JOINT L_Wrist
	{
		OFFSET	 0.208349	 0.000000	 0.000000
		CHANNELS 3 Zrotation Xrotation Yrotation
		JOINT L_index_Proximal
		{
			OFFSET	 0.093499	 0.010637	-0.002084
			CHANNELS 3 Zrotation Xrotation Yrotation
			JOINT L_index_b
			{
				OFFSET	 0.033152	 0.000000	 0.000000
				CHANNELS 3 Zrotation Xrotation Yrotation
				JOINT L_index_c
				{
					OFFSET	 0.018651	 0.000000	 0.000000
					CHANNELS 3 Zrotation Xrotation Yrotation
					End Site
					{
						OFFSET	 0.018651	 0.000000	 0.000000
					}
				}
			}
		}
		JOINT L_middle_Proximal
		{
			OFFSET	 0.090632	-0.006115	-0.003750
			CHANNELS 3 Zrotation Xrotation Yrotation
			JOINT L_middle_b
			{
				OFFSET	 0.037195	 0.000000	 0.000000
				CHANNELS 3 Zrotation Xrotation Yrotation
				JOINT L_middle_c
				{
					OFFSET	 0.021943	 0.000000	 0.000000
					CHANNELS 3 Zrotation Xrotation Yrotation
					End Site
					{
						OFFSET	 0.021943	 0.000000	 0.000000
					}
				}
			}
		}
		JOINT L_pinky_Proximal
		{
			OFFSET	 0.074015	-0.035449	-0.000417
			CHANNELS 3 Zrotation Xrotation Yrotation
			JOINT L_pinky_b
			{
				OFFSET	 0.027285	 0.000000	 0.000000
				CHANNELS 3 Zrotation Xrotation Yrotation
				JOINT L_pinky_c
				{
					OFFSET	 0.015093	 0.000000	 0.000000
					CHANNELS 3 Zrotation Xrotation Yrotation
					End Site
					{
						OFFSET	 0.015093	 0.000000	 0.000000
					}
				}
			}
		}
		JOINT L_ring_Proximal
		{
			OFFSET	 0.082801	-0.021859	-0.003750
			CHANNELS 3 Zrotation Xrotation Yrotation
			JOINT L_ring_b
			{
				OFFSET	 0.034478	 0.000000	 0.000000
				CHANNELS 3 Zrotation Xrotation Yrotation
				JOINT L_ring_c
				{
					OFFSET	 0.021377	 0.000000	 0.000000
					CHANNELS 3 Zrotation Xrotation Yrotation
					End Site
					{
						OFFSET	 0.021377	 0.000000	 0.000000
					}
				}
			}
		}
		JOINT L_thumb_Proximal
		{
			OFFSET	 0.030306	 0.018528	 0.004584
			CHANNELS 3 Zrotation Xrotation Yrotation
			JOINT L_thumb_a
			{
				OFFSET	 0.038520	 0.000000	 0.000000
				CHANNELS 3 Zrotation Xrotation Yrotation
				JOINT L_thumb_b
				{
					OFFSET	 0.026310	 0.000000	 0.000000
					CHANNELS 3 Zrotation Xrotation Yrotation
					End Site
					{
						OFFSET	 0.026310	 0.000000	 0.000000
					}
				}
			}
		}
	}
}
MOTION
Frames:    12
Frame Time: 0.01666667
 0.771978	-0.594972	 0.818247	-48.276080	-2.458887	-161.157600	-7.760077	-1.234826	-7.021682	 3.444538	-0.397415	-3.457386	-2.189410	 0.084920	-4.442018	-0.277437	 0.002964	-1.227143	-10.187390	-8.163495	-55.978060	 4.082585	-2.648208	-65.926810	 1.955790	-0.885949	-48.737450	-31.869480	-17.443400	-48.723970	 1.181188	-0.680149	-59.867010	 2.581675	-1.229431	-50.923120	-19.811490	-10.792200	-57.039130	 1.214940	-0.833247	-68.885960	 0.376046	-0.154800	-44.750730	 52.234390	 51.437690	-61.176880	-1.887169	 0.278162	-16.768570	-5.458000	 1.439771	-29.535110
 0.771517	-0.595066	 0.818386	-48.291490	-2.453586	-161.150800	-7.767754	-1.227463	-6.979565	 3.478297	-0.401279	-3.481237	-2.196609	 0.084953	-4.429243	-0.299919	 0.003196	-1.219146	-10.228570	-8.136470	-56.078630	 3.983274	-2.592036	-66.094490	 1.855835	-0.839182	-48.662100	-31.906300	-17.422020	-48.777020	 1.148355	-0.661948	-59.920520	 2.532057	-1.205873	-50.925770	-19.834280	-10.776510	-57.100590	 1.193358	-0.819166	-68.933170	 0.347909	-0.143264	-44.761470	 52.242220	 51.419950	-61.229610	-1.885193	 0.278022	-16.777610	-5.466095	 1.441327	-29.523570
 0.770919	-0.595023	 0.818623	-48.315380	-2.412832	-161.170100	-7.797256	-1.220284	-6.938607	 3.446008	-0.401270	-3.604552	-2.235922	 0.086757	-4.443531	-0.359279	 0.004061	-1.294354	-10.298640	-8.090878	-56.195180	 3.895574	-2.544536	-66.292430	 1.744047	-0.786199	-48.528140	-31.941060	-17.403490	-48.791180	 1.120892	-0.646849	-59.976870	 2.482918	-1.181100	-50.874550	-19.840980	-10.771830	-57.091260	 1.199028	-0.824160	-69.005260	 0.313304	-0.129015	-44.764200	 52.251320	 51.427450	-61.193720	-1.883622	 0.276672	-16.710150	-5.436167	 1.430849	-29.472540
 0.770730	-0.595022	 0.818627	-48.327530	-2.348466	-161.192000	-7.817830	-1.216397	-6.916377	 3.440165	-0.402331	-3.665596	-2.217686	 0.086109	-4.446595	-0.355343	 0.004087	-1.316995	-10.322500	-8.075566	-56.197780	 3.887698	-2.540745	-66.320460	 1.695547	-0.763902	-48.503950	-31.964040	-17.392270	-48.778680	 1.110139	-0.640884	-59.995440	 2.447689	-1.163590	-50.845920	-19.833540	-10.776670	-57.058600	 1.218921	-0.838052	-69.019010	 0.298995	-0.123115	-44.759530	 52.224850	 51.462570	-61.112080	-1.891288	 0.277229	-16.677060	-5.379546	 1.412832	-29.411020
 0.770293	-0.595013	 0.818628	-48.358900	-2.285877	-161.231200	-7.825106	-1.211928	-6.890790	 3.420136	-0.402554	-3.715894	-2.180761	 0.086053	-4.518749	-0.369659	 0.004498	-1.393783	-10.367770	-8.048141	-56.176760	 3.884011	-2.538445	-66.322940	 1.636726	-0.737138	-48.488600	-31.996330	-17.380250	-48.713840	 1.118338	-0.645158	-59.959170	 2.426835	-1.150574	-50.726280	-19.841220	-10.774030	-56.953170	 1.274019	-0.875038	-68.964220	 0.305438	-0.125723	-44.746560	 52.175820	 51.514530	-60.999410	-1.913573	 0.280229	-16.661170	-5.306599	 1.387997	-29.297220
 0.770038	-0.595013	 0.818648	-48.345500	-2.276871	-161.239700	-7.818366	-1.213623	-6.900469	 3.413867	-0.403274	-3.747925	-2.151721	 0.085957	-4.574800	-0.362595	 0.004453	-1.406823	-10.370670	-8.046994	-56.146740	 3.893459	-2.543310	-66.295680	 1.623914	-0.731122	-48.474190	-31.993310	-17.384060	-48.675860	 1.124249	-0.648100	-59.924070	 2.434610	-1.152915	-50.674750	-19.837310	-10.777520	-56.906460	 1.273135	-0.873937	-68.933930	 0.300930	-0.123821	-44.729680	 52.139570	 51.542120	-60.954660	-1.915265	 0.280300	-16.651030	-5.293312	 1.382678	-29.260050
 0.769938	-0.594823	 0.818555	-48.328130	-2.272851	-161.276500	-7.799369	-1.221621	-6.946210	 3.408592	-0.404584	-3.794201	-2.140000	 0.085540	-4.577244	-0.347835	 0.004208	-1.386192	-10.368670	-8.049582	-56.061300	 3.908316	-2.547277	-66.177650	 1.602068	-0.721092	-48.462620	-31.992500	-17.389750	-48.580500	 1.137361	-0.654795	-59.857760	 2.452088	-1.158922	-50.588430	-19.833800	-10.781260	-56.828740	 1.279657	-0.877584	-68.883640	 0.302928	-0.124557	-44.702270	 52.093000	 51.581460	-60.883390	-1.903045	 0.278500	-16.650380	-5.275573	 1.375735	-29.213170
 0.769877	-0.594848	 0.818476	-48.294020	-2.277558	-161.295800	-7.795683	-1.229326	-6.990272	 3.423043	-0.406982	-3.814402	-2.132720	 0.084663	-4.545968	-0.332348	 0.003937	-1.357864	-10.358220	-8.056996	-56.000550	 3.919197	-2.550342	-66.094640	 1.602254	-0.721496	-48.481910	-31.985040	-17.396770	-48.521810	 1.145982	-0.659266	-59.821360	 2.472158	-1.167852	-50.566860	-19.828920	-10.785240	-56.786390	 1.288026	-0.883010	-68.863820	 0.309905	-0.127365	-44.683640	 52.056830	 51.608860	-60.839450	-1.903479	 0.278765	-16.661200	-5.271947	 1.374237	-29.201970
 0.769839	-0.594742	 0.818452	-48.280870	-2.293413	-161.305500	-7.768096	-1.236782	-7.032867	 3.429575	-0.409683	-3.843494	-2.132593	 0.084362	-4.530092	-0.322834	 0.003833	-1.360796	-10.341600	-8.069664	-55.924480	 3.947896	-2.563437	-65.980640	 1.623322	-0.731338	-48.502690	-31.970070	-17.408640	-48.463700	 1.153234	-0.662880	-59.780110	 2.492217	-1.176625	-50.540180	-19.813310	-10.797340	-56.737340	 1.310396	-0.897666	-68.824360	 0.325985	-0.133843	-44.642760	 52.017750	 51.639300	-60.784060	-1.902418	 0.278768	-16.671380	-5.281159	 1.376548	-29.200140
 0.770057	-0.594832	 0.818307	-48.242290	-2.340460	-161.334000	-7.755258	-1.248513	-7.099926	 3.438958	-0.408114	-3.810684	-2.119097	 0.083170	-4.494536	-0.292259	 0.003410	-1.338071	-10.313700	-8.085658	-55.807430	 3.959356	-2.563317	-65.826670	 1.717888	-0.777274	-48.687110	-31.944160	-17.424990	-48.340050	 1.153093	-0.661854	-59.709390	 2.514008	-1.186924	-50.540470	-19.793190	-10.808640	-56.634070	 1.309564	-0.895516	-68.729200	 0.336043	-0.137930	-44.633080	 51.997080	 51.662090	-60.742160	-1.909001	 0.279844	-16.678320	-5.324986	 1.387504	-29.190270
 0.770151	-0.594881	 0.818241	-48.243180	-2.375152	-161.339600	-7.761455	-1.250826	-7.113163	 3.467041	-0.412165	-3.803939	-2.113997	 0.082889	-4.490264	-0.287627	 0.003311	-1.318943	-10.303370	-8.093557	-55.772090	 3.965003	-2.564099	-65.767910	 1.745036	-0.790411	-48.733630	-31.934700	-17.433130	-48.294030	 1.148128	-0.658758	-59.690730	 2.522323	-1.191070	-50.548910	-19.795610	-10.808600	-56.607510	 1.306379	-0.892619	-68.686200	 0.343981	-0.141268	-44.654160	 51.995340	 51.658520	-60.751660	-1.910019	 0.280228	-16.692100	-5.364323	 1.397558	-29.186260
 0.770332	-0.594989	 0.818230	-48.219600	-2.435626	-161.321200	-7.787148	-1.256441	-7.145245	 3.513737	-0.416551	-3.790997	-2.117147	 0.082862	-4.482114	-0.297040	 0.003350	-1.293095	-10.299140	-8.096708	-55.664670	 3.967219	-2.556875	-65.591430	 1.761824	-0.798762	-48.773530	-31.922550	-17.444470	-48.178340	 1.168187	-0.669393	-59.625560	 2.551854	-1.204290	-50.522170	-19.810260	-10.799890	-56.532870	 1.324868	-0.903353	-68.574130	 0.356637	-0.146527	-44.670780	 51.978760	 51.659900	-60.772830	-1.916290	 0.282060	-16.744640	-5.389640	 1.404558	-29.193770
